<mxfile host="app.diagrams.net" modified="2021-10-19T03:03:00.868Z" agent="5.0 (Windows NT 10.0; Win64; x64) AppleWebKit/537.36 (KHTML, like Gecko) Chrome/94.0.4606.81 Safari/537.36" etag="G0rZo7e1o_MO5Y7Jzfd7" version="15.3.1" type="github">
  <diagram id="S77MIIq8dLGlXsgrOxae" name="Page-1">
    <mxGraphModel dx="682" dy="687" grid="1" gridSize="10" guides="1" tooltips="1" connect="1" arrows="1" fold="1" page="1" pageScale="1" pageWidth="850" pageHeight="1100" math="0" shadow="0">
      <root>
        <mxCell id="0" />
        <mxCell id="1" parent="0" />
        <mxCell id="hq1FBOOwmCVYk8TP00cu-3" style="edgeStyle=orthogonalEdgeStyle;rounded=0;orthogonalLoop=1;jettySize=auto;html=1;exitX=0.25;exitY=0.1;exitDx=0;exitDy=0;exitPerimeter=0;" edge="1" parent="1" source="hq1FBOOwmCVYk8TP00cu-1">
          <mxGeometry relative="1" as="geometry">
            <mxPoint x="60" y="70" as="targetPoint" />
          </mxGeometry>
        </mxCell>
        <mxCell id="hq1FBOOwmCVYk8TP00cu-1" value="&lt;font face=&quot;Times New Roman&quot; size=&quot;1&quot;&gt;&lt;b style=&quot;font-size: 18px&quot;&gt;User&lt;/b&gt;&lt;/font&gt;" style="shape=umlActor;verticalLabelPosition=bottom;verticalAlign=top;html=1;outlineConnect=0;" vertex="1" parent="1">
          <mxGeometry x="50" y="70" width="30" height="60" as="geometry" />
        </mxCell>
        <mxCell id="hq1FBOOwmCVYk8TP00cu-2" value="Front-End(React.js)" style="rounded=0;whiteSpace=wrap;html=1;fontFamily=Times New Roman;fontStyle=1;fontSize=18;" vertex="1" parent="1">
          <mxGeometry x="120" y="40" width="260" height="40" as="geometry" />
        </mxCell>
        <mxCell id="hq1FBOOwmCVYk8TP00cu-4" value="Back-End(Node.js/Express/Mongoose" style="rounded=0;whiteSpace=wrap;html=1;fontFamily=Times New Roman;fontStyle=1;fontSize=16;" vertex="1" parent="1">
          <mxGeometry x="420" y="40" width="230" height="40" as="geometry" />
        </mxCell>
        <mxCell id="hq1FBOOwmCVYk8TP00cu-5" value="Database Server(MongoDB)" style="rounded=0;whiteSpace=wrap;html=1;fontFamily=Times New Roman;fontSize=16;fontStyle=1" vertex="1" parent="1">
          <mxGeometry x="680" y="40" width="150" height="40" as="geometry" />
        </mxCell>
        <mxCell id="hq1FBOOwmCVYk8TP00cu-6" value="&amp;lt;&amp;lt;Router&amp;gt;&amp;gt;&lt;br&gt;AppRouting&lt;br&gt;Module" style="rounded=1;whiteSpace=wrap;html=1;fillColor=#60a917;strokeColor=#2D7600;fontColor=#ffffff;" vertex="1" parent="1">
          <mxGeometry x="120" y="100" width="80" height="40" as="geometry" />
        </mxCell>
        <mxCell id="HimexdIa_nyhEuFzRo-0-1" value="&amp;lt;&amp;lt;insert&amp;gt;&amp;gt;&lt;br&gt;fetchBooks" style="rounded=1;whiteSpace=wrap;html=1;fillColor=#60a917;strokeColor=#2D7600;fontColor=#ffffff;fontFamily=Times New Roman;fontSize=14;fontStyle=1" vertex="1" parent="1">
          <mxGeometry x="310" y="100" width="80" height="40" as="geometry" />
        </mxCell>
        <mxCell id="HimexdIa_nyhEuFzRo-0-2" value="&amp;lt;&amp;lt;router&amp;gt;&amp;gt;&lt;br&gt;app.get()" style="rounded=1;whiteSpace=wrap;html=1;gradientColor=#b3b3b3;fillColor=#f5f5f5;strokeColor=#666666;fontFamily=Times New Roman;fontSize=14;" vertex="1" parent="1">
          <mxGeometry x="420" y="100" width="70" height="40" as="geometry" />
        </mxCell>
        <mxCell id="HimexdIa_nyhEuFzRo-0-3" value="&amp;lt;&amp;lt;controller&lt;br style=&quot;font-size: 10px;&quot;&gt;&amp;gt;&amp;gt;&lt;br style=&quot;font-size: 10px;&quot;&gt;fetchBooks()" style="rounded=1;whiteSpace=wrap;html=1;gradientColor=#b3b3b3;fillColor=#f5f5f5;strokeColor=#666666;fontSize=10;fontStyle=1;fontFamily=Times New Roman;" vertex="1" parent="1">
          <mxGeometry x="500" y="100" width="70" height="40" as="geometry" />
        </mxCell>
        <mxCell id="HimexdIa_nyhEuFzRo-0-4" value="&amp;lt;&amp;lt;Model&amp;gt;&amp;gt;&lt;br&gt;Book" style="rounded=1;whiteSpace=wrap;html=1;gradientColor=#b3b3b3;fillColor=#f5f5f5;strokeColor=#666666;fontSize=14;fontFamily=Times New Roman;" vertex="1" parent="1">
          <mxGeometry x="580" y="100" width="70" height="40" as="geometry" />
        </mxCell>
        <mxCell id="HimexdIa_nyhEuFzRo-0-5" value="Database" style="rounded=1;whiteSpace=wrap;html=1;fillColor=#a20025;strokeColor=#6F0000;fontColor=#ffffff;fontSize=14;fontStyle=1" vertex="1" parent="1">
          <mxGeometry x="680" y="100" width="150" height="40" as="geometry" />
        </mxCell>
        <mxCell id="HimexdIa_nyhEuFzRo-0-6" value="" style="rounded=1;whiteSpace=wrap;html=1;direction=south;fillColor=#d80073;strokeColor=#A50040;fontColor=#ffffff;" vertex="1" parent="1">
          <mxGeometry x="50" y="210" width="20" height="370" as="geometry" />
        </mxCell>
        <mxCell id="HimexdIa_nyhEuFzRo-0-7" value="" style="rounded=1;whiteSpace=wrap;html=1;direction=south;fillColor=#60a917;strokeColor=#2D7600;fontColor=#ffffff;" vertex="1" parent="1">
          <mxGeometry x="150" y="200" width="20" height="160" as="geometry" />
        </mxCell>
        <mxCell id="HimexdIa_nyhEuFzRo-0-8" value="" style="rounded=1;whiteSpace=wrap;html=1;fontFamily=Times New Roman;fontSize=14;direction=south;fillColor=#a20025;strokeColor=#6F0000;fontColor=#ffffff;" vertex="1" parent="1">
          <mxGeometry x="750" y="290" width="20" height="140" as="geometry" />
        </mxCell>
        <mxCell id="HimexdIa_nyhEuFzRo-0-10" value="" style="endArrow=none;dashed=1;html=1;fontFamily=Times New Roman;fontSize=14;exitX=0;exitY=0.5;exitDx=0;exitDy=0;" edge="1" parent="1" source="HimexdIa_nyhEuFzRo-0-8">
          <mxGeometry width="50" height="50" relative="1" as="geometry">
            <mxPoint x="620" y="290" as="sourcePoint" />
            <mxPoint x="762" y="142" as="targetPoint" />
          </mxGeometry>
        </mxCell>
        <mxCell id="HimexdIa_nyhEuFzRo-0-11" value="" style="endArrow=none;dashed=1;html=1;fontFamily=Times New Roman;fontSize=14;entryX=1;entryY=0.5;entryDx=0;entryDy=0;" edge="1" parent="1" target="HimexdIa_nyhEuFzRo-0-8">
          <mxGeometry width="50" height="50" relative="1" as="geometry">
            <mxPoint x="760" y="550" as="sourcePoint" />
            <mxPoint x="670" y="240" as="targetPoint" />
          </mxGeometry>
        </mxCell>
        <mxCell id="HimexdIa_nyhEuFzRo-0-15" value="&lt;b&gt;Process&lt;br&gt;request&lt;br&gt;&lt;/b&gt;" style="text;html=1;align=center;verticalAlign=middle;resizable=0;points=[];autosize=1;strokeColor=none;fillColor=none;fontSize=14;fontFamily=Times New Roman;" vertex="1" parent="1">
          <mxGeometry x="780" y="350" width="60" height="40" as="geometry" />
        </mxCell>
        <mxCell id="HimexdIa_nyhEuFzRo-0-16" value="" style="rounded=1;whiteSpace=wrap;html=1;fontFamily=Times New Roman;fontSize=14;direction=south;gradientColor=#b3b3b3;fillColor=#f5f5f5;strokeColor=#666666;" vertex="1" parent="1">
          <mxGeometry x="610" y="250" width="20" height="150" as="geometry" />
        </mxCell>
        <mxCell id="HimexdIa_nyhEuFzRo-0-17" value="" style="rounded=1;whiteSpace=wrap;html=1;fontFamily=Times New Roman;fontSize=14;direction=south;gradientColor=#b3b3b3;fillColor=#f5f5f5;strokeColor=#666666;" vertex="1" parent="1">
          <mxGeometry x="525" y="230" width="20" height="210" as="geometry" />
        </mxCell>
        <mxCell id="HimexdIa_nyhEuFzRo-0-18" value="" style="rounded=1;whiteSpace=wrap;html=1;fontFamily=Times New Roman;fontSize=14;direction=south;gradientColor=#b3b3b3;fillColor=#f5f5f5;strokeColor=#666666;" vertex="1" parent="1">
          <mxGeometry x="450" y="190" width="20" height="125" as="geometry" />
        </mxCell>
        <mxCell id="HimexdIa_nyhEuFzRo-0-19" value="" style="rounded=1;whiteSpace=wrap;html=1;fontFamily=Times New Roman;fontSize=14;direction=south;fillColor=#60a917;strokeColor=#2D7600;fontColor=#ffffff;" vertex="1" parent="1">
          <mxGeometry x="250" y="190" width="20" height="320" as="geometry" />
        </mxCell>
        <mxCell id="HimexdIa_nyhEuFzRo-0-20" value="" style="rounded=1;whiteSpace=wrap;html=1;fontFamily=Times New Roman;fontSize=14;direction=south;fillColor=#60a917;strokeColor=#2D7600;fontColor=#ffffff;" vertex="1" parent="1">
          <mxGeometry x="340" y="220" width="20" height="210" as="geometry" />
        </mxCell>
        <mxCell id="HimexdIa_nyhEuFzRo-0-22" value="" style="endArrow=none;dashed=1;html=1;fontFamily=Times New Roman;fontSize=14;exitX=0;exitY=0.5;exitDx=0;exitDy=0;" edge="1" parent="1" source="HimexdIa_nyhEuFzRo-0-16">
          <mxGeometry width="50" height="50" relative="1" as="geometry">
            <mxPoint x="540" y="280" as="sourcePoint" />
            <mxPoint x="620" y="140" as="targetPoint" />
          </mxGeometry>
        </mxCell>
        <mxCell id="HimexdIa_nyhEuFzRo-0-24" value="" style="endArrow=none;dashed=1;html=1;fontFamily=Times New Roman;fontSize=14;exitX=1;exitY=0.5;exitDx=0;exitDy=0;" edge="1" parent="1" source="HimexdIa_nyhEuFzRo-0-16">
          <mxGeometry width="50" height="50" relative="1" as="geometry">
            <mxPoint x="540" y="280" as="sourcePoint" />
            <mxPoint x="620" y="640" as="targetPoint" />
          </mxGeometry>
        </mxCell>
        <mxCell id="HimexdIa_nyhEuFzRo-0-25" value="" style="endArrow=none;dashed=1;html=1;fontFamily=Times New Roman;fontSize=14;entryX=0.5;entryY=1;entryDx=0;entryDy=0;exitX=0;exitY=0.5;exitDx=0;exitDy=0;" edge="1" parent="1" source="HimexdIa_nyhEuFzRo-0-17" target="HimexdIa_nyhEuFzRo-0-3">
          <mxGeometry width="50" height="50" relative="1" as="geometry">
            <mxPoint x="540" y="280" as="sourcePoint" />
            <mxPoint x="590" y="230" as="targetPoint" />
          </mxGeometry>
        </mxCell>
        <mxCell id="HimexdIa_nyhEuFzRo-0-26" value="" style="endArrow=none;dashed=1;html=1;fontFamily=Times New Roman;fontSize=14;exitX=1;exitY=0.5;exitDx=0;exitDy=0;" edge="1" parent="1" source="HimexdIa_nyhEuFzRo-0-17">
          <mxGeometry width="50" height="50" relative="1" as="geometry">
            <mxPoint x="540" y="280" as="sourcePoint" />
            <mxPoint x="535" y="640" as="targetPoint" />
          </mxGeometry>
        </mxCell>
        <mxCell id="HimexdIa_nyhEuFzRo-0-27" value="" style="endArrow=classic;html=1;fontFamily=Times New Roman;fontSize=14;entryX=0.25;entryY=1;entryDx=0;entryDy=0;" edge="1" parent="1" target="HimexdIa_nyhEuFzRo-0-8">
          <mxGeometry width="50" height="50" relative="1" as="geometry">
            <mxPoint x="633" y="325" as="sourcePoint" />
            <mxPoint x="590" y="200" as="targetPoint" />
          </mxGeometry>
        </mxCell>
        <mxCell id="HimexdIa_nyhEuFzRo-0-28" value="request through&lt;br&gt;mongoose" style="text;html=1;align=center;verticalAlign=middle;resizable=0;points=[];autosize=1;strokeColor=none;fillColor=none;fontSize=14;fontFamily=Times New Roman;" vertex="1" parent="1">
          <mxGeometry x="640" y="280" width="100" height="40" as="geometry" />
        </mxCell>
        <mxCell id="HimexdIa_nyhEuFzRo-0-34" value="&lt;b&gt;callback&lt;/b&gt;" style="text;html=1;align=center;verticalAlign=middle;resizable=0;points=[];autosize=1;strokeColor=none;fillColor=none;fontSize=14;fontFamily=Times New Roman;" vertex="1" parent="1">
          <mxGeometry x="655" y="380" width="70" height="20" as="geometry" />
        </mxCell>
        <mxCell id="HimexdIa_nyhEuFzRo-0-37" value="&lt;b&gt;redirects&lt;br&gt;to model&lt;br&gt;&lt;/b&gt;" style="text;html=1;align=center;verticalAlign=middle;resizable=0;points=[];autosize=1;strokeColor=none;fillColor=none;fontSize=14;fontFamily=Times New Roman;" vertex="1" parent="1">
          <mxGeometry x="545" y="200" width="70" height="40" as="geometry" />
        </mxCell>
        <mxCell id="HimexdIa_nyhEuFzRo-0-38" value="" style="endArrow=classic;html=1;fontFamily=Times New Roman;fontSize=14;exitX=0.129;exitY=0;exitDx=0;exitDy=0;exitPerimeter=0;entryX=0.054;entryY=1;entryDx=0;entryDy=0;entryPerimeter=0;" edge="1" parent="1" source="HimexdIa_nyhEuFzRo-0-17" target="HimexdIa_nyhEuFzRo-0-16">
          <mxGeometry width="50" height="50" relative="1" as="geometry">
            <mxPoint x="540" y="230" as="sourcePoint" />
            <mxPoint x="600" y="257" as="targetPoint" />
          </mxGeometry>
        </mxCell>
        <mxCell id="HimexdIa_nyhEuFzRo-0-41" value="&lt;b&gt;callback&lt;/b&gt;" style="text;html=1;align=center;verticalAlign=middle;resizable=0;points=[];autosize=1;strokeColor=none;fillColor=none;fontSize=14;fontFamily=Times New Roman;" vertex="1" parent="1">
          <mxGeometry x="545" y="380" width="70" height="20" as="geometry" />
        </mxCell>
        <mxCell id="HimexdIa_nyhEuFzRo-0-42" value="" style="endArrow=none;dashed=1;html=1;fontFamily=Times New Roman;fontSize=14;exitX=0;exitY=0.5;exitDx=0;exitDy=0;" edge="1" parent="1" source="HimexdIa_nyhEuFzRo-0-18">
          <mxGeometry width="50" height="50" relative="1" as="geometry">
            <mxPoint x="540" y="230" as="sourcePoint" />
            <mxPoint x="460" y="140" as="targetPoint" />
          </mxGeometry>
        </mxCell>
        <mxCell id="HimexdIa_nyhEuFzRo-0-43" value="" style="endArrow=none;dashed=1;html=1;fontFamily=Times New Roman;fontSize=14;exitX=1;exitY=0.5;exitDx=0;exitDy=0;" edge="1" parent="1" source="HimexdIa_nyhEuFzRo-0-18">
          <mxGeometry width="50" height="50" relative="1" as="geometry">
            <mxPoint x="460" y="320" as="sourcePoint" />
            <mxPoint x="460" y="630" as="targetPoint" />
          </mxGeometry>
        </mxCell>
        <mxCell id="HimexdIa_nyhEuFzRo-0-46" value="" style="endArrow=block;dashed=1;endFill=0;endSize=12;html=1;fontFamily=Times New Roman;fontSize=14;" edge="1" parent="1">
          <mxGeometry width="160" relative="1" as="geometry">
            <mxPoint x="747" y="370" as="sourcePoint" />
            <mxPoint x="630" y="373" as="targetPoint" />
          </mxGeometry>
        </mxCell>
        <mxCell id="HimexdIa_nyhEuFzRo-0-48" value="" style="endArrow=block;dashed=1;endFill=0;endSize=12;html=1;fontFamily=Times New Roman;fontSize=14;exitX=0.813;exitY=1;exitDx=0;exitDy=0;exitPerimeter=0;" edge="1" parent="1" source="HimexdIa_nyhEuFzRo-0-16">
          <mxGeometry width="160" relative="1" as="geometry">
            <mxPoint x="490" y="210" as="sourcePoint" />
            <mxPoint x="550" y="372" as="targetPoint" />
          </mxGeometry>
        </mxCell>
        <mxCell id="HimexdIa_nyhEuFzRo-0-49" value="" style="endArrow=classic;html=1;fontFamily=Times New Roman;fontSize=14;" edge="1" parent="1">
          <mxGeometry width="50" height="50" relative="1" as="geometry">
            <mxPoint x="470" y="242" as="sourcePoint" />
            <mxPoint x="522" y="242" as="targetPoint" />
          </mxGeometry>
        </mxCell>
        <mxCell id="HimexdIa_nyhEuFzRo-0-50" value="redirect&lt;br&gt;to&lt;br&gt;controller&lt;br&gt;" style="text;html=1;align=center;verticalAlign=middle;resizable=0;points=[];autosize=1;strokeColor=none;fillColor=none;fontSize=14;fontFamily=Times New Roman;fontStyle=1" vertex="1" parent="1">
          <mxGeometry x="465" y="150" width="70" height="60" as="geometry" />
        </mxCell>
        <mxCell id="HimexdIa_nyhEuFzRo-0-51" value="" style="endArrow=block;dashed=1;endFill=0;endSize=12;html=1;fontFamily=Times New Roman;fontSize=14;entryX=0.867;entryY=0;entryDx=0;entryDy=0;entryPerimeter=0;" edge="1" parent="1" target="HimexdIa_nyhEuFzRo-0-20">
          <mxGeometry width="160" relative="1" as="geometry">
            <mxPoint x="520" y="400" as="sourcePoint" />
            <mxPoint x="650" y="380" as="targetPoint" />
          </mxGeometry>
        </mxCell>
        <mxCell id="HimexdIa_nyhEuFzRo-0-52" value="" style="endArrow=classic;html=1;fontFamily=Times New Roman;fontSize=14;" edge="1" parent="1">
          <mxGeometry width="50" height="50" relative="1" as="geometry">
            <mxPoint x="363" y="240" as="sourcePoint" />
            <mxPoint x="450" y="242" as="targetPoint" />
          </mxGeometry>
        </mxCell>
        <mxCell id="HimexdIa_nyhEuFzRo-0-53" value="" style="endArrow=classic;html=1;fontFamily=Times New Roman;fontSize=14;entryX=0.114;entryY=1.1;entryDx=0;entryDy=0;entryPerimeter=0;" edge="1" parent="1" target="HimexdIa_nyhEuFzRo-0-20">
          <mxGeometry width="50" height="50" relative="1" as="geometry">
            <mxPoint x="270" y="244" as="sourcePoint" />
            <mxPoint x="350" y="350" as="targetPoint" />
          </mxGeometry>
        </mxCell>
        <mxCell id="HimexdIa_nyhEuFzRo-0-54" value="" style="endArrow=block;dashed=1;endFill=0;endSize=12;html=1;fontFamily=Times New Roman;fontSize=14;entryX=0.606;entryY=-0.05;entryDx=0;entryDy=0;entryPerimeter=0;" edge="1" parent="1" target="HimexdIa_nyhEuFzRo-0-19">
          <mxGeometry width="160" relative="1" as="geometry">
            <mxPoint x="338" y="384" as="sourcePoint" />
            <mxPoint x="280" y="380" as="targetPoint" />
          </mxGeometry>
        </mxCell>
        <mxCell id="HimexdIa_nyhEuFzRo-0-55" value="" style="endArrow=none;dashed=1;html=1;fontFamily=Times New Roman;fontSize=14;entryX=0.5;entryY=1;entryDx=0;entryDy=0;" edge="1" parent="1" source="HimexdIa_nyhEuFzRo-0-20" target="HimexdIa_nyhEuFzRo-0-1">
          <mxGeometry width="50" height="50" relative="1" as="geometry">
            <mxPoint x="300" y="400" as="sourcePoint" />
            <mxPoint x="350" y="350" as="targetPoint" />
          </mxGeometry>
        </mxCell>
        <mxCell id="HimexdIa_nyhEuFzRo-0-56" value="" style="endArrow=none;dashed=1;html=1;fontFamily=Times New Roman;fontSize=14;entryX=1;entryY=0.5;entryDx=0;entryDy=0;" edge="1" parent="1" target="HimexdIa_nyhEuFzRo-0-20">
          <mxGeometry width="50" height="50" relative="1" as="geometry">
            <mxPoint x="350" y="640" as="sourcePoint" />
            <mxPoint x="350" y="350" as="targetPoint" />
          </mxGeometry>
        </mxCell>
        <mxCell id="HimexdIa_nyhEuFzRo-0-57" value="" style="endArrow=none;dashed=1;html=1;fontFamily=Times New Roman;fontSize=14;entryX=0.5;entryY=1;entryDx=0;entryDy=0;exitX=0;exitY=0.5;exitDx=0;exitDy=0;" edge="1" parent="1" source="HimexdIa_nyhEuFzRo-0-19">
          <mxGeometry width="50" height="50" relative="1" as="geometry">
            <mxPoint x="300" y="400" as="sourcePoint" />
            <mxPoint x="260" y="140" as="targetPoint" />
          </mxGeometry>
        </mxCell>
        <mxCell id="HimexdIa_nyhEuFzRo-0-58" value="" style="endArrow=none;dashed=1;html=1;fontFamily=Times New Roman;fontSize=14;exitX=1;exitY=0.5;exitDx=0;exitDy=0;" edge="1" parent="1" source="HimexdIa_nyhEuFzRo-0-19">
          <mxGeometry width="50" height="50" relative="1" as="geometry">
            <mxPoint x="260" y="520" as="sourcePoint" />
            <mxPoint x="260" y="670" as="targetPoint" />
          </mxGeometry>
        </mxCell>
        <mxCell id="HimexdIa_nyhEuFzRo-0-59" value="" style="endArrow=none;dashed=1;html=1;fontFamily=Times New Roman;fontSize=14;exitX=0.5;exitY=1;exitDx=0;exitDy=0;entryX=0;entryY=0.5;entryDx=0;entryDy=0;" edge="1" parent="1" source="hq1FBOOwmCVYk8TP00cu-6" target="HimexdIa_nyhEuFzRo-0-7">
          <mxGeometry width="50" height="50" relative="1" as="geometry">
            <mxPoint x="300" y="400" as="sourcePoint" />
            <mxPoint x="350" y="350" as="targetPoint" />
          </mxGeometry>
        </mxCell>
        <mxCell id="HimexdIa_nyhEuFzRo-0-60" value="" style="endArrow=none;dashed=1;html=1;fontFamily=Times New Roman;fontSize=14;exitX=1;exitY=0.5;exitDx=0;exitDy=0;" edge="1" parent="1" source="HimexdIa_nyhEuFzRo-0-7">
          <mxGeometry width="50" height="50" relative="1" as="geometry">
            <mxPoint x="300" y="400" as="sourcePoint" />
            <mxPoint x="160" y="670" as="targetPoint" />
          </mxGeometry>
        </mxCell>
        <mxCell id="HimexdIa_nyhEuFzRo-0-63" value="" style="endArrow=none;dashed=1;html=1;fontFamily=Times New Roman;fontSize=17;entryX=0;entryY=0.5;entryDx=0;entryDy=0;" edge="1" parent="1" target="HimexdIa_nyhEuFzRo-0-6">
          <mxGeometry width="50" height="50" relative="1" as="geometry">
            <mxPoint x="60" y="170" as="sourcePoint" />
            <mxPoint x="350" y="350" as="targetPoint" />
          </mxGeometry>
        </mxCell>
        <mxCell id="HimexdIa_nyhEuFzRo-0-65" value="" style="endArrow=none;dashed=1;html=1;fontFamily=Times New Roman;fontSize=17;exitX=1;exitY=0.5;exitDx=0;exitDy=0;" edge="1" parent="1" source="HimexdIa_nyhEuFzRo-0-6">
          <mxGeometry width="50" height="50" relative="1" as="geometry">
            <mxPoint x="300" y="400" as="sourcePoint" />
            <mxPoint x="60" y="690" as="targetPoint" />
          </mxGeometry>
        </mxCell>
        <mxCell id="HimexdIa_nyhEuFzRo-0-66" value="" style="endArrow=classic;html=1;fontFamily=Times New Roman;fontSize=17;exitX=0.088;exitY=-0.05;exitDx=0;exitDy=0;exitPerimeter=0;" edge="1" parent="1" source="HimexdIa_nyhEuFzRo-0-7">
          <mxGeometry width="50" height="50" relative="1" as="geometry">
            <mxPoint x="260" y="380" as="sourcePoint" />
            <mxPoint x="250" y="214" as="targetPoint" />
          </mxGeometry>
        </mxCell>
        <mxCell id="HimexdIa_nyhEuFzRo-0-67" value="" style="endArrow=classic;html=1;fontFamily=Times New Roman;fontSize=17;exitX=0.035;exitY=0.05;exitDx=0;exitDy=0;exitPerimeter=0;entryX=0.144;entryY=1.15;entryDx=0;entryDy=0;entryPerimeter=0;" edge="1" parent="1" source="HimexdIa_nyhEuFzRo-0-6" target="HimexdIa_nyhEuFzRo-0-7">
          <mxGeometry width="50" height="50" relative="1" as="geometry">
            <mxPoint x="260" y="380" as="sourcePoint" />
            <mxPoint x="150" y="220" as="targetPoint" />
          </mxGeometry>
        </mxCell>
        <mxCell id="HimexdIa_nyhEuFzRo-0-68" value="" style="endArrow=block;dashed=1;endFill=0;endSize=12;html=1;fontFamily=Times New Roman;fontSize=17;exitX=0.891;exitY=1.15;exitDx=0;exitDy=0;exitPerimeter=0;entryX=0.724;entryY=0.05;entryDx=0;entryDy=0;entryPerimeter=0;" edge="1" parent="1" source="HimexdIa_nyhEuFzRo-0-19" target="HimexdIa_nyhEuFzRo-0-6">
          <mxGeometry width="160" relative="1" as="geometry">
            <mxPoint x="200" y="360" as="sourcePoint" />
            <mxPoint x="360" y="360" as="targetPoint" />
          </mxGeometry>
        </mxCell>
        <mxCell id="HimexdIa_nyhEuFzRo-0-69" value="&lt;font size=&quot;1&quot;&gt;&amp;lt;&amp;lt;component&amp;gt;&amp;gt;&lt;br&gt;Bookscomponent&lt;br&gt;&lt;/font&gt;" style="rounded=1;whiteSpace=wrap;html=1;fontFamily=Times New Roman;fontSize=8;fillColor=#60a917;strokeColor=#2D7600;fontColor=#ffffff;fontStyle=1" vertex="1" parent="1">
          <mxGeometry x="210" y="100" width="90" height="40" as="geometry" />
        </mxCell>
        <mxCell id="HimexdIa_nyhEuFzRo-0-70" value="&lt;font style=&quot;font-size: 13px;&quot;&gt;&lt;b style=&quot;font-size: 13px;&quot;&gt;Calls &lt;br style=&quot;font-size: 13px;&quot;&gt;component&lt;/b&gt;&lt;/font&gt;" style="text;html=1;align=center;verticalAlign=middle;resizable=0;points=[];autosize=1;strokeColor=none;fillColor=none;fontSize=13;fontFamily=Times New Roman;" vertex="1" parent="1">
          <mxGeometry x="165" y="160" width="80" height="40" as="geometry" />
        </mxCell>
        <mxCell id="HimexdIa_nyhEuFzRo-0-71" value="&lt;span style=&quot;font-size: 14px&quot;&gt;calls service&lt;br&gt;to retreave&lt;br&gt;data&lt;br&gt;&lt;/span&gt;" style="text;html=1;align=center;verticalAlign=middle;resizable=0;points=[];autosize=1;strokeColor=none;fillColor=none;fontSize=13;fontFamily=Times New Roman;" vertex="1" parent="1">
          <mxGeometry x="270" y="170" width="80" height="50" as="geometry" />
        </mxCell>
        <mxCell id="HimexdIa_nyhEuFzRo-0-72" value="&lt;b&gt;display data&lt;br&gt;and graphical&lt;br&gt;info&lt;br&gt;&lt;/b&gt;" style="text;html=1;align=center;verticalAlign=middle;resizable=0;points=[];autosize=1;strokeColor=none;fillColor=none;fontSize=13;fontFamily=Times New Roman;" vertex="1" parent="1">
          <mxGeometry x="70" y="490" width="90" height="50" as="geometry" />
        </mxCell>
        <mxCell id="HimexdIa_nyhEuFzRo-0-73" value="express.json" style="text;html=1;align=center;verticalAlign=middle;resizable=0;points=[];autosize=1;strokeColor=none;fillColor=none;fontSize=13;fontFamily=Times New Roman;fontStyle=1" vertex="1" parent="1">
          <mxGeometry x="370" y="410" width="80" height="20" as="geometry" />
        </mxCell>
        <mxCell id="HimexdIa_nyhEuFzRo-0-74" value="&lt;b&gt;http requset&lt;br&gt;to&lt;br&gt;graphql&lt;br&gt;&lt;/b&gt;" style="text;html=1;align=center;verticalAlign=middle;resizable=0;points=[];autosize=1;strokeColor=none;fillColor=none;fontSize=13;fontFamily=Times New Roman;" vertex="1" parent="1">
          <mxGeometry x="370" y="180" width="80" height="50" as="geometry" />
        </mxCell>
        <mxCell id="HimexdIa_nyhEuFzRo-0-75" value="resu;ts&amp;nbsp;&lt;br&gt;objects" style="text;html=1;align=center;verticalAlign=middle;resizable=0;points=[];autosize=1;strokeColor=none;fillColor=none;fontSize=13;fontFamily=Times New Roman;" vertex="1" parent="1">
          <mxGeometry x="275" y="400" width="50" height="40" as="geometry" />
        </mxCell>
        <mxCell id="HimexdIa_nyhEuFzRo-0-76" value="types http:/&lt;br&gt;voice-pored-self-pro&lt;br&gt;ductivity-app.com" style="text;html=1;align=center;verticalAlign=middle;resizable=0;points=[];autosize=1;strokeColor=none;fillColor=none;fontSize=13;fontFamily=Times New Roman;" vertex="1" parent="1">
          <mxGeometry x="45" y="155" width="120" height="50" as="geometry" />
        </mxCell>
      </root>
    </mxGraphModel>
  </diagram>
</mxfile>
